<?xml version="1.0" standalone="no"?>
<!DOCTYPE svg PUBLIC "-//W3C//DTD SVG 20010904//EN"
 "http://www.w3.org/TR/2001/REC-SVG-20010904/DTD/svg10.dtd">
<svg version="1.0" xmlns="http://www.w3.org/2000/svg"
 width="600.000000pt" height="600.000000pt" viewBox="0 0 600.000000 600.000000"
 preserveAspectRatio="xMidYMid meet">
<metadata>
Created by potrace 1.11, written by Peter Selinger 2001-2013
</metadata>
<g transform="translate(0.000000,600.000000) scale(0.100000,-0.100000)"
fill="#000000" stroke="none">
<path d="M2959 4226 c-7 -7 -35 -14 -86 -20 -18 -3 -36 -7 -41 -10 -5 -3 -19
-7 -33 -9 -13 -3 -42 -10 -64 -15 -22 -6 -53 -13 -70 -16 -16 -3 -45 -10 -63
-15 -18 -5 -35 -10 -37 -10 -3 -1 -7 -2 -10 -2 -3 -1 -9 -3 -15 -4 -5 -1 -11
-3 -12 -4 -2 -2 -14 -4 -28 -6 -25 -3 -295 -67 -340 -80 -3 -1 -32 -7 -65 -15
-75 -17 -74 -17 -77 -20 -2 -1 -12 -3 -23 -5 -26 -3 -58 -11 -125 -29 -30 -8
-68 -18 -85 -21 -16 -3 -41 -8 -55 -11 -14 -3 -43 -10 -64 -15 -22 -6 -49 -12
-61 -13 -11 -1 -26 -5 -31 -9 -6 -3 -26 -9 -45 -12 -19 -3 -47 -10 -64 -15
-16 -5 -41 -11 -55 -14 -14 -2 -47 -10 -75 -16 -27 -6 -57 -13 -65 -15 -8 -1
-35 -8 -60 -15 -25 -7 -52 -13 -60 -15 -8 -2 -35 -8 -60 -15 -25 -7 -56 -14
-70 -17 -14 -2 -50 -11 -81 -19 -31 -7 -66 -14 -78 -14 -12 0 -21 -5 -21 -11
0 -5 -4 -8 -10 -4 -5 3 -46 -4 -92 -16 -46 -12 -92 -23 -103 -25 -11 -2 -40
-8 -65 -15 -25 -6 -55 -13 -67 -15 -12 -2 -34 -9 -48 -14 -14 -5 -29 -9 -33
-9 -4 1 -9 0 -12 -1 -7 -2 -39 -9 -70 -15 -48 -8 -145 -37 -153 -44 -4 -5 -10
-22 -12 -40 -6 -47 19 -65 126 -90 52 -11 103 -23 114 -26 11 -2 36 -9 55 -14
38 -9 292 -70 325 -77 11 -2 47 -11 80 -19 33 -9 71 -18 85 -21 14 -3 54 -12
90 -21 36 -8 74 -17 85 -18 11 -2 48 -11 82 -20 35 -9 71 -18 80 -20 10 -1 38
-8 63 -15 51 -14 45 -13 128 -30 38 -8 66 -19 70 -28 3 -8 0 -36 -7 -61 -17
-60 -21 -84 -25 -156 -2 -33 -5 -64 -6 -70 -1 -5 -1 -12 0 -15 1 -3 3 -30 4
-60 3 -65 14 -120 28 -137 6 -7 7 -13 3 -13 -4 0 -2 -7 5 -15 7 -8 10 -15 6
-15 -7 0 50 -112 87 -171 12 -19 42 -57 67 -83 44 -45 52 -61 41 -81 -3 -5 -6
-16 -7 -25 -8 -53 -17 -87 -26 -97 -6 -7 -7 -13 -4 -13 4 0 2 -9 -4 -20 -14
-26 2 -56 34 -64 14 -3 38 -11 53 -18 30 -12 163 -17 163 -7 0 13 64 37 87 33
13 -3 47 -19 76 -38 89 -56 238 -131 320 -161 42 -15 77 -32 77 -38 0 -6 3 -8
6 -5 3 3 33 -3 67 -14 117 -37 261 -75 322 -84 22 -3 44 -8 49 -11 17 -11 78
-4 155 18 42 11 84 22 94 24 80 17 302 97 432 156 28 13 53 22 58 21 4 -1 7 2
7 8 0 5 9 10 20 10 11 0 20 5 20 11 0 5 4 8 9 5 5 -3 14 1 21 9 7 8 16 15 20
15 21 0 269 157 333 210 112 93 135 115 204 195 45 52 140 231 135 256 -1 3 5
28 12 55 23 90 19 255 -9 374 -14 59 -14 68 -2 77 11 9 73 28 122 38 11 2 52
11 90 20 39 9 77 18 85 20 13 3 86 20 175 41 17 4 35 8 40 9 6 2 30 8 55 15
25 7 54 13 65 15 11 1 38 7 60 13 22 6 51 13 65 16 14 3 70 16 125 30 55 14
111 27 125 29 14 3 43 10 65 15 22 6 52 14 68 17 66 13 81 16 87 20 4 2 22 7
40 10 19 3 49 13 67 22 30 14 33 20 33 57 0 46 -16 62 -72 71 -18 3 -46 10
-63 15 -16 5 -41 11 -55 13 -14 2 -32 6 -40 9 -16 6 -327 81 -349 84 -7 2 -34
8 -60 14 -25 6 -55 13 -66 15 -11 2 -40 9 -65 16 -25 6 -52 12 -60 14 -8 2
-33 8 -55 13 -22 6 -51 13 -65 16 -14 3 -43 10 -64 15 -22 5 -42 9 -45 9 -3
-1 -13 1 -21 4 -27 10 -94 27 -130 33 -19 3 -51 10 -70 15 -19 5 -46 11 -60
13 -26 5 -86 20 -151 39 -20 6 -42 7 -48 4 -6 -4 -11 -3 -11 2 0 5 -15 12 -32
15 -18 3 -82 18 -143 32 -141 33 -140 33 -140 35 0 1 -9 3 -20 5 -27 5 -88 18
-100 21 -5 1 -71 17 -145 34 -210 50 -197 47 -225 56 -11 3 -108 24 -140 30
-11 2 -58 13 -105 25 -47 11 -93 22 -102 25 -10 2 -28 7 -40 10 -36 10 -142
17 -149 10z"/>
</g>
</svg>
